<svg width="169" height="48" fill="none" xmlns="http://www.w3.org/2000/svg"><path d="M42.807 24.054A21.417 21.417 0 0022.309 2.686h-1.986l-.562.04c-.174 0-.348 0-.517.04l-.469.059c-.205.026-.406.049-.607.08-.111 0-.214.036-.325.053-.246.045-.495.085-.74.134l-.175.04c-.29.063-.58.125-.87.201H16c-.998.263-1.976.597-2.927 1h-.04c-.299.13-.598.263-.893.401a21.417 21.417 0 000 38.608c.201.099.407.188.612.277l.321.143c.308.13.616.254.933.366h.03c.322.12.643.227.965.33h.03c.304.093.608.178.893.259l.112.03c.276.072.553.13.83.193l.214.049.714.125.348.062.598.076.477.058c.17 0 .344.027.518.04.174.014.374.031.562.04.187.01.446 0 .696 0h1.276a21.252 21.252 0 0010.084-3.002l10.404 3.034-2.989-10.37a21.305 21.305 0 003.039-10.998zM9.695 39.755c-.556-.419-1.09-.866-1.601-1.339a19.598 19.598 0 013.4-2.547c1.03 2.864 2.436 5.233 4.122 6.898a19.52 19.52 0 01-5.92-3.012zm-4.948-5.39a19.737 19.737 0 01-1.44-2.802l-.095-.232a19.75 19.75 0 01-.923-2.985.42.42 0 010-.071 19.706 19.706 0 01-.286-1.629 21.01 21.01 0 01-.147-1.686h7.741c.05 3.1.5 6.18 1.339 9.164a21.562 21.562 0 00-4.1 3.016 19.57 19.57 0 01-1.95-2.57l-.139-.205zM1.985 21.47c.072-.544.17-1.088.286-1.624a.335.335 0 010-.071c.234-1.02.548-2.02.941-2.99l.094-.227c.179-.446.38-.861.59-1.285l.146-.285c.223-.42.447-.835.705-1.236l.125-.197a19.626 19.626 0 011.955-2.57 21.542 21.542 0 004.1 3.012 36.093 36.093 0 00-1.339 9.165h-7.75c.027-.569.076-1.13.147-1.687v-.005zm10.602 11.798a34.318 34.318 0 01-1.21-8.322h9.147v6.443c-2.742.11-5.437.748-7.937 1.879zm7.937-.072v10.396C17.494 43.04 14.8 39.72 13.135 35a19.474 19.474 0 017.39-1.803zm-9.146-10.034c.06-2.813.466-5.608 1.209-8.322a21.168 21.168 0 007.937 1.879v6.443h-9.146zm1.758-10.053c1.664-4.734 4.359-8.031 7.388-8.589v10.392a19.313 19.313 0 01-7.389-1.803zm2.48-7.746a18.694 18.694 0 00-4.1 6.903 19.598 19.598 0 01-3.4-2.548 27.15 27.15 0 011.548-1.303 19.591 19.591 0 015.952-3.052zm24.54 37.48l-7.255-2.16-.776-.218-.678.405a19.578 19.578 0 01-9.138 2.749V4.471A19.592 19.592 0 0138.215 34.12l-.406.691.219.763 2.128 7.269zM71.492 5.81c2.45 2.105 3.676 5.169 3.676 9.19.059 2.39-.56 4.747-1.785 6.8a11.914 11.914 0 01-5.211 4.534 18.69 18.69 0 01-8.067 1.606l-2.23-.036a105.013 105.013 0 00-3.124-.071c-2.784 0-4.855.035-6.211.107v-.714a5.635 5.635 0 001.66-.286 1.196 1.196 0 00.696-.82 7.58 7.58 0 00.178-1.964V6.434a7.06 7.06 0 00-.21-1.963 1.24 1.24 0 00-.695-.821 5.435 5.435 0 00-1.642-.286V2.65c1.091.072 2.71.107 4.854.107h1.285l1.57-.035c2-.051 3.392-.075 4.177-.072 4.938 0 8.63 1.053 11.079 3.16zm-12.19-2.267a1.406 1.406 0 00-.767.892 6.493 6.493 0 00-.215 1.927V24.21c-.025.65.047 1.299.215 1.927a1.405 1.405 0 00.767.892c.543.195 1.12.28 1.695.25 2.356 0 4.058-1.017 5.105-3.052 1.047-2.034 1.57-5.062 1.57-9.084 0-4.018-.541-6.993-1.624-8.923-1.083-1.93-2.778-2.9-5.086-2.91a4.256 4.256 0 00-1.66.233zM85.667 24.602c0 .977.147 1.647.446 2.017a1.879 1.879 0 001.553.553v.75c-2.57-.092-4.26-.14-5.069-.143-.809-.003-2.594.045-5.354.143v-.75a1.892 1.892 0 001.553-.553c.294-.37.446-1.04.446-2.017V13.287a4.907 4.907 0 00-.446-2.392 1.659 1.659 0 00-1.553-.75V9.38c.758.07 1.5.107 2.23.107a32.312 32.312 0 006.194-.482v15.598zM85.109.794a2.708 2.708 0 011.004 2.284 2.708 2.708 0 01-1.004 2.285 4.622 4.622 0 01-2.873.785c-1.264 0-2.228-.262-2.892-.785a2.723 2.723 0 01-.999-2.285 2.722 2.722 0 011-2.284c.666-.524 1.63-.785 2.89-.785a4.622 4.622 0 012.874.785zM97.335 24.602c0 .977.147 1.647.446 2.017a1.88 1.88 0 001.552.553v.75c-2.57-.092-4.26-.14-5.068-.143-.81-.003-2.594.045-5.354.143v-.75a1.892 1.892 0 001.552-.553c.295-.37.447-1.04.447-2.017V4.292a4.908 4.908 0 00-.447-2.392 1.66 1.66 0 00-1.552-.75V.402c.736.072 1.472.107 2.23.107 2.076.033 4.15-.134 6.194-.5v24.594zM130.731 26.619a1.879 1.879 0 001.553.553v.75c-2.57-.094-4.239-.143-4.998-.143-.758 0-2.333.05-4.711.143v-.75a1.04 1.04 0 00.999-.535 4.91 4.91 0 00.286-2.035v-11.6a2.862 2.862 0 00-.411-1.696 1.564 1.564 0 00-1.338-.553 2.328 2.328 0 00-1.696.785 3.365 3.365 0 00-.95 1.856c.045.571.071 1.084.071 1.535v9.673c0 1 .116 1.678.357 2.035a1.43 1.43 0 001.285.535v.75c-2.382-.094-3.926-.143-4.64-.143-.714 0-2.334.05-4.712.143v-.75a1.031 1.031 0 001-.553 4.943 4.943 0 00.285-2.017v-11.6a3.476 3.476 0 00-.321-1.696 1.142 1.142 0 00-1.071-.553 2.523 2.523 0 00-1.784.732 2.419 2.419 0 00-.768 1.838v11.28c-.051.69.046 1.384.286 2.034a1.027 1.027 0 00.999.535v.75c-2.192-.092-3.644-.14-4.355-.143-.812 0-2.596.048-5.354.143v-.75a1.893 1.893 0 001.553-.553c.294-.37.446-1.04.446-2.017V13.287a4.913 4.913 0 00-.446-2.392 1.659 1.659 0 00-1.553-.749v-.767c.759.07 1.499.107 2.231.107a32.308 32.308 0 006.211-.5v2.57c.999-1.785 2.772-2.677 5.318-2.677 1.901 0 3.24.476 4.016 1.428.386.492.655 1.065.785 1.677a5.156 5.156 0 012.374-2.41 8.282 8.282 0 013.569-.695c1.901 0 3.24.476 4.016 1.428.389.515.652 1.114.768 1.749.186.946.27 1.909.249 2.873v9.673c.005.977.148 1.647.451 2.017zM134.617 26.94a4.32 4.32 0 01-1.164-3.087 4.135 4.135 0 01.839-2.677 5.905 5.905 0 011.985-1.624 23.674 23.674 0 012.958-1.178 15.33 15.33 0 002.825-1.178 1.667 1.667 0 00.892-1.5v-3.159a3.67 3.67 0 00-.575-2.034c-.381-.595-1.034-.892-1.959-.892a3.454 3.454 0 00-1.999.606 3.572 3.572 0 011.785 1.268c.387.547.593 1.203.589 1.873a2.802 2.802 0 01-.982 2.231 3.57 3.57 0 01-2.378.84 2.837 2.837 0 01-2.195-.893 3.169 3.169 0 01-.799-2.231 3.218 3.218 0 01.535-1.856 4.868 4.868 0 011.678-1.428c1.33-.764 3.232-1.145 5.707-1.142a13.51 13.51 0 013.395.375 5.08 5.08 0 012.423 1.41c.489.521.818 1.171.95 1.873.176 1.032.254 2.078.232 3.124v9.584c-.022.408.019.817.121 1.213a.447.447 0 00.446.322 1.11 1.11 0 00.54-.161c.189-.108.369-.234.535-.375l.357.607c-1.026.892-2.489 1.339-4.39 1.339-1.428 0-2.432-.246-2.999-.732a2.686 2.686 0 01-.91-2.017 5.5 5.5 0 01-4.997 2.713c-1.526.012-2.674-.393-3.445-1.214zm8.335-2.23v-7.532a8.496 8.496 0 01-1.178 1.392 8.168 8.168 0 00-1.463 1.785 4.775 4.775 0 00-.5 2.409c0 1.713.607 2.57 1.82 2.57a1.787 1.787 0 001.321-.625zM164.561 9.2a7.518 7.518 0 012.017.767 4.17 4.17 0 012.141 3.713 3.394 3.394 0 01-.955 2.48 3.292 3.292 0 01-2.463.982 3.251 3.251 0 01-2.409-.892 3.172 3.172 0 01-.892-2.338 3.395 3.395 0 01.856-2.25 4.018 4.018 0 012.088-1.302 2.228 2.228 0 00-1.427-.446c-1.52 0-2.59.815-3.208 2.445a16.292 16.292 0 00-.933 5.8c0 2.285.428 3.92 1.285 4.908a4.058 4.058 0 003.168 1.482c1.74 0 3.18-.798 4.319-2.392l.611.214a10.005 10.005 0 01-2.677 4.284 6.684 6.684 0 01-4.805 1.784c-2.594 0-4.676-.773-6.247-2.32-1.57-1.547-2.354-4.021-2.351-7.424 0-3.272.837-5.717 2.512-7.335 1.675-1.619 3.894-2.434 6.657-2.446.912-.014 1.823.082 2.713.286zM160.3 30.063a7.225 7.225 0 012.815-.535 2.975 2.975 0 011.963.571 1.856 1.856 0 01.679 1.5c0 .999-.518 1.754-1.553 2.266a9.247 9.247 0 01-4.087.767 9.594 9.594 0 01-3.213-.446l.214-.642a7.683 7.683 0 001.714.178 3.323 3.323 0 001.553-.339 1.086 1.086 0 00.66-1.017c0-.594-.33-.893-1-.893a2.505 2.505 0 00-1.178.25l1.071-3.783h.964l-.602 2.123z" fill="#fff"/><path opacity=".8" d="M54.514 44.346a3.592 3.592 0 01-5.247 0c-.633-.776-.633-1.7-.633-2.744v-5.515h.723v5.582c0 .696 0 1.54.468 2.168a2.721 2.721 0 004.176 0c.447-.629.447-1.472.447-2.168v-5.582h.722v5.515c0 1.044-.04 1.968-.656 2.744zm-3.533-9.37a.575.575 0 01-.563-.584.571.571 0 111.138 0 .575.575 0 01-.575.597v-.013zm1.784 0a.576.576 0 01-.562-.598.571.571 0 111.138 0 .577.577 0 01-.553.611l-.023-.013zM60.605 45.457a2.555 2.555 0 01-2.316-1.312v1.178h-.696v-9.236h.696v4.216a2.676 2.676 0 012.343-1.298c1.847 0 3.051 1.365 3.051 3.212 0 1.848-1.218 3.24-3.078 3.24zm0-5.85c-1.513 0-2.343 1.165-2.343 2.61 0 1.446.83 2.61 2.343 2.61 1.512 0 2.342-1.177 2.342-2.61 0-1.432-.843-2.61-2.342-2.61zM70.974 42.396h-5.046c.067 1.472.892 2.45 2.302 2.45a3.168 3.168 0 002.182-.804l.335.496s-.777.937-2.584.937-2.971-1.339-2.971-3.24c0-1.9 1.365-3.212 3.011-3.212a2.765 2.765 0 012.811 2.904 3.849 3.849 0 01-.04.469zm-2.81-2.77a2.23 2.23 0 00-2.232 2.168h4.35a2.155 2.155 0 00-2.119-2.187v.018zM75.061 39.674c-1.191 0-1.512 1.339-1.512 2.303v3.346h-.697v-6.206h.697v1.16a1.637 1.637 0 011.58-1.272c.226-.003.451.029.668.094l-.067.687a1.695 1.695 0 00-.669-.112zM78.898 45.457a2.516 2.516 0 01-2.262-1.205l.495-.402a2.128 2.128 0 001.785.978c.776 0 1.459-.375 1.459-1.178 0-.803-1.111-1.084-1.646-1.272-.536-.187-1.7-.589-1.7-1.713 0-1.125.977-1.66 1.887-1.66a2.378 2.378 0 011.954.87l-.446.446a1.919 1.919 0 00-1.553-.705c-.696 0-1.19.344-1.19.986 0 .643.668.924 1.431 1.192.763.267 1.941.669 1.941 1.847s-1.004 1.816-2.155 1.816zM88.233 42.396h-5.047c.067 1.472.892 2.45 2.302 2.45a3.168 3.168 0 002.182-.804l.335.496s-.776.937-2.584.937c-1.806 0-2.971-1.339-2.971-3.24 0-1.9 1.365-3.212 3.012-3.212a2.765 2.765 0 012.81 2.904 3.849 3.849 0 01-.04.469zm-2.812-2.77a2.231 2.231 0 00-2.208 2.168h4.35a2.156 2.156 0 00-2.142-2.187v.018zM91.632 45.457a1.218 1.218 0 01-1.178-.67c-.214-.414-.227-.892-.227-1.873V39.79h-.937v-.651h.937v-1.977h.71v1.977h1.565v.63h-1.58v3.569c0 .682.081 1.499.893 1.499.235.001.466-.059.67-.174l.066.602a1.839 1.839 0 01-.919.192zM93.774 45.323v-.495l3.975-5.06h-3.774v-.63h4.685v.496l-3.99 5.06h4.19v.629h-5.086zM104.473 45.323v-1.004a2.198 2.198 0 01-2.008 1.138c-1.713 0-2.141-1.125-2.141-2.65v-3.69h.696v3.797c0 .937.174 1.94 1.539 1.94s1.914-1.204 1.914-2.409v-3.328h.696v6.206h-.696zM111.657 45.323v-3.681c0-1.004-.174-2.035-1.513-2.035-1.338 0-1.981 1.165-1.981 2.637v3.079h-.696v-6.206h.696v1.15a2.172 2.172 0 012.008-1.262c1.785 0 2.195 1.138 2.195 2.61v3.708h-.709zM119.786 46.661c-.334.536-1.071 1.339-2.677 1.339a4.074 4.074 0 01-2.61-.937l.402-.535a3.607 3.607 0 002.275.843c1.834 0 2.409-1.285 2.409-2.918v-.446a2.547 2.547 0 01-2.342 1.338 3.166 3.166 0 01-2.995-3.159 3.164 3.164 0 012.995-3.159 2.602 2.602 0 012.334 1.263v-1.173h.709v4.867c.009 1.406-.165 2.142-.5 2.677zm-2.503-7.04c-1.539 0-2.342 1.124-2.342 2.53 0 1.405.803 2.543 2.342 2.543 1.54 0 2.343-1.138 2.343-2.544 0-1.405-.803-2.53-2.343-2.53zM124.226 45.457a2.515 2.515 0 01-2.262-1.205l.495-.402a2.124 2.124 0 001.785.978c.776 0 1.459-.375 1.459-1.178 0-.803-1.111-1.084-1.647-1.272-.535-.187-1.7-.589-1.7-1.713 0-1.125.977-1.66 1.888-1.66a2.375 2.375 0 011.954.87l-.446.446a1.923 1.923 0 00-1.553-.705c-.696 0-1.191.344-1.191.986 0 .643.669.924 1.432 1.192.763.267 1.941.669 1.941 1.847s-1.004 1.816-2.155 1.816zM131.222 45.457a2.555 2.555 0 01-2.316-1.312v1.178h-.696v-9.236h.696v4.216a2.678 2.678 0 012.343-1.298c1.847 0 3.052 1.365 3.052 3.212 0 1.848-1.205 3.24-3.079 3.24zm0-5.85c-1.513 0-2.343 1.165-2.343 2.61 0 1.446.83 2.61 2.343 2.61 1.512 0 2.342-1.177 2.342-2.61 0-1.432-.843-2.61-2.342-2.61zM140.288 45.323v-1.004a2.198 2.198 0 01-2.007 1.138c-1.714 0-2.142-1.125-2.142-2.65v-3.69h.696v3.797c0 .937.174 1.94 1.539 1.94 1.366 0 1.914-1.204 1.914-2.409v-3.328h.705v6.206h-.705zm-2.623-7.657a.6.6 0 01-.635-.694.602.602 0 011.197.097.57.57 0 01-.341.548.576.576 0 01-.221.05zm1.785 0a.606.606 0 01-.585-.343.603.603 0 111.147-.254.576.576 0 01-.54.598h-.022zM145.491 39.674c-1.191 0-1.513 1.339-1.513 2.303v3.346h-.696v-6.206h.696v1.16a1.635 1.635 0 011.58-1.272c.226-.003.452.029.669.094l-.067.687a1.694 1.694 0 00-.669-.112zM150.171 45.457a3.225 3.225 0 113.186-3.213 3.134 3.134 0 01-.904 2.29 3.126 3.126 0 01-2.282.923zm0-5.85c-1.499 0-2.436 1.165-2.436 2.61 0 1.446.937 2.61 2.436 2.61 1.499 0 2.45-1.177 2.45-2.61 0-1.432-.919-2.61-2.45-2.61z" fill="#fff"/></svg>